<?xml version="1.0" encoding="utf-8" standalone="no"?>
<!DOCTYPE svg PUBLIC "-//W3C//DTD SVG 1.1//EN"
  "http://www.w3.org/Graphics/SVG/1.1/DTD/svg11.dtd">
<svg xmlns:xlink="http://www.w3.org/1999/xlink" width="720pt" height="432pt" viewBox="0 0 720 432" xmlns="http://www.w3.org/2000/svg" version="1.1">
 <metadata>
  <rdf:RDF xmlns:dc="http://purl.org/dc/elements/1.1/" xmlns:cc="http://creativecommons.org/ns#" xmlns:rdf="http://www.w3.org/1999/02/22-rdf-syntax-ns#">
   <cc:Work>
    <dc:type rdf:resource="http://purl.org/dc/dcmitype/StillImage"/>
    <dc:date>2024-12-20T00:48:17.112178</dc:date>
    <dc:format>image/svg+xml</dc:format>
    <dc:creator>
     <cc:Agent>
      <dc:title>Matplotlib v3.8.0, https://matplotlib.org/</dc:title>
     </cc:Agent>
    </dc:creator>
   </cc:Work>
  </rdf:RDF>
 </metadata>
 <defs>
  <style type="text/css">*{stroke-linejoin: round; stroke-linecap: butt}</style>
 </defs>
 <g id="figure_1">
  <g id="patch_1">
   <path d="M 0 432 
L 720 432 
L 720 0 
L 0 0 
z
" style="fill: #ffffff"/>
  </g>
  <g id="axes_1">
   <g id="patch_2">
    <path d="M 90 384.48 
L 648 384.48 
L 648 51.84 
L 90 51.84 
z
" style="fill: #ffffff"/>
   </g>
   <g id="PolyCollection_1">
    <defs>
     <path id="m9cb5d14c5d" d="M 115.363636 -62.64 
L 115.363636 -93.764091 
L 142.062201 -117.651457 
L 168.760766 -136.557091 
L 195.45933 -160.48768 
L 222.157895 -146.067333 
L 248.856459 -158.883498 
L 275.555024 -164.775377 
L 302.253589 -169.187804 
L 328.952153 -194.160678 
L 355.650718 -163.838061 
L 382.349282 -95.176857 
L 409.047847 -70.075549 
L 435.746411 -66.612789 
L 462.444976 -64.929571 
L 489.143541 -65.060474 
L 542.54067 -65.545804 
L 569.239234 -64.329392 
L 595.937799 -63.924333 
L 622.636364 -65.077764 
L 622.636364 -62.64 
L 622.636364 -62.64 
L 595.937799 -62.64 
L 569.239234 -62.64 
L 542.54067 -62.64 
L 489.143541 -62.64 
L 462.444976 -62.64 
L 435.746411 -62.64 
L 409.047847 -62.64 
L 382.349282 -62.64 
L 355.650718 -62.64 
L 328.952153 -62.64 
L 302.253589 -62.64 
L 275.555024 -62.64 
L 248.856459 -62.64 
L 222.157895 -62.64 
L 195.45933 -62.64 
L 168.760766 -62.64 
L 142.062201 -62.64 
L 115.363636 -62.64 
z
" style="stroke: #ffcc99; stroke-opacity: 0.1"/>
    </defs>
    <g clip-path="url(#p0bbb3e49fe)">
     <use xlink:href="#m9cb5d14c5d" x="0" y="432" style="fill: #ffcc99; fill-opacity: 0.1; stroke: #ffcc99; stroke-opacity: 0.1"/>
    </g>
   </g>
   <g id="PolyCollection_2">
    <defs>
     <path id="ma70c4c1dac" d="M 115.363636 -62.64 
L 115.363636 -136.448417 
L 142.062201 -197.87907 
L 168.760766 -226.509825 
L 195.45933 -275.347837 
L 222.157895 -259.19364 
L 248.856459 -296.256538 
L 275.555024 -322.776787 
L 302.253589 -326.642137 
L 328.952153 -365.04 
L 355.650718 -294.304104 
L 382.349282 -146.555132 
L 409.047847 -83.426442 
L 435.746411 -72.889968 
L 462.444976 -67.7514 
L 489.143541 -66.622668 
L 542.54067 -67.005499 
L 569.239234 -65.447009 
L 595.937799 -65.283998 
L 622.636364 -67.317937 
L 622.636364 -62.64 
L 622.636364 -62.64 
L 595.937799 -62.64 
L 569.239234 -62.64 
L 542.54067 -62.64 
L 489.143541 -62.64 
L 462.444976 -62.64 
L 435.746411 -62.64 
L 409.047847 -62.64 
L 382.349282 -62.64 
L 355.650718 -62.64 
L 328.952153 -62.64 
L 302.253589 -62.64 
L 275.555024 -62.64 
L 248.856459 -62.64 
L 222.157895 -62.64 
L 195.45933 -62.64 
L 168.760766 -62.64 
L 142.062201 -62.64 
L 115.363636 -62.64 
z
" style="stroke: #669999; stroke-opacity: 0.1"/>
    </defs>
    <g clip-path="url(#p0bbb3e49fe)">
     <use xlink:href="#ma70c4c1dac" x="0" y="432" style="fill: #669999; fill-opacity: 0.1; stroke: #669999; stroke-opacity: 0.1"/>
    </g>
   </g>
   <g id="PolyCollection_3">
    <defs>
     <path id="m180b30929e" d="M 115.363636 -62.64 
L 115.363636 -105.883752 
L 142.062201 -146.962661 
L 168.760766 -171.089605 
L 195.45933 -210.346984 
L 222.157895 -207.949973 
L 248.856459 -227.134703 
L 275.555024 -241.702007 
L 302.253589 -250.339149 
L 328.952153 -270.483424 
L 355.650718 -226.355458 
L 382.349282 -124.565863 
L 409.047847 -77.424653 
L 435.746411 -70.026152 
L 462.444976 -66.651072 
L 489.143541 -66.11511 
L 542.54067 -66.728873 
L 569.239234 -65.659418 
L 595.937799 -65.495172 
L 622.636364 -67.346341 
L 622.636364 -62.64 
L 622.636364 -62.64 
L 595.937799 -62.64 
L 569.239234 -62.64 
L 542.54067 -62.64 
L 489.143541 -62.64 
L 462.444976 -62.64 
L 435.746411 -62.64 
L 409.047847 -62.64 
L 382.349282 -62.64 
L 355.650718 -62.64 
L 328.952153 -62.64 
L 302.253589 -62.64 
L 275.555024 -62.64 
L 248.856459 -62.64 
L 222.157895 -62.64 
L 195.45933 -62.64 
L 168.760766 -62.64 
L 142.062201 -62.64 
L 115.363636 -62.64 
z
" style="stroke: #996666; stroke-opacity: 0.1"/>
    </defs>
    <g clip-path="url(#p0bbb3e49fe)">
     <use xlink:href="#m180b30929e" x="0" y="432" style="fill: #996666; fill-opacity: 0.1; stroke: #996666; stroke-opacity: 0.1"/>
    </g>
   </g>
   <g id="PolyCollection_4">
    <defs>
     <path id="m89338c08ab" d="M 115.363636 -62.64 
L 115.363636 -88.724317 
L 142.062201 -117.597119 
L 168.760766 -132.324966 
L 195.45933 -155.205859 
L 222.157895 -148.230941 
L 248.856459 -154.882306 
L 275.555024 -155.000859 
L 302.253589 -156.092543 
L 328.952153 -164.63089 
L 355.650718 -141.87843 
L 382.349282 -91.619007 
L 409.047847 -69.554406 
L 435.746411 -65.905171 
L 462.444976 -64.75915 
L 489.143541 -64.37138 
L 542.54067 -64.699873 
L 569.239234 -64.459061 
L 595.937799 -64.396079 
L 622.636364 -65.211137 
L 622.636364 -62.64 
L 622.636364 -62.64 
L 595.937799 -62.64 
L 569.239234 -62.64 
L 542.54067 -62.64 
L 489.143541 -62.64 
L 462.444976 -62.64 
L 435.746411 -62.64 
L 409.047847 -62.64 
L 382.349282 -62.64 
L 355.650718 -62.64 
L 328.952153 -62.64 
L 302.253589 -62.64 
L 275.555024 -62.64 
L 248.856459 -62.64 
L 222.157895 -62.64 
L 195.45933 -62.64 
L 168.760766 -62.64 
L 142.062201 -62.64 
L 115.363636 -62.64 
z
" style="stroke: #006699; stroke-opacity: 0.1"/>
    </defs>
    <g clip-path="url(#p0bbb3e49fe)">
     <use xlink:href="#m89338c08ab" x="0" y="432" style="fill: #006699; fill-opacity: 0.1; stroke: #006699; stroke-opacity: 0.1"/>
    </g>
   </g>
   <g id="PolyCollection_5">
    <defs>
     <path id="ma481a08fc4" d="M 115.363636 -62.64 
L 115.363636 -76.405831 
L 142.062201 -94.343276 
L 168.760766 -108.358564 
L 195.45933 -128.155822 
L 222.157895 -128.131123 
L 248.856459 -137.361034 
L 275.555024 -141.037439 
L 302.253589 -147.740671 
L 328.952153 -158.431511 
L 355.650718 -139.7494 
L 382.349282 -90.243288 
L 409.047847 -68.823324 
L 435.746411 -65.372913 
L 462.444976 -64.308398 
L 489.143541 -64.052767 
L 542.54067 -64.372615 
L 569.239234 -64.092285 
L 595.937799 -64.039182 
L 622.636364 -64.646771 
L 622.636364 -62.64 
L 622.636364 -62.64 
L 595.937799 -62.64 
L 569.239234 -62.64 
L 542.54067 -62.64 
L 489.143541 -62.64 
L 462.444976 -62.64 
L 435.746411 -62.64 
L 409.047847 -62.64 
L 382.349282 -62.64 
L 355.650718 -62.64 
L 328.952153 -62.64 
L 302.253589 -62.64 
L 275.555024 -62.64 
L 248.856459 -62.64 
L 222.157895 -62.64 
L 195.45933 -62.64 
L 168.760766 -62.64 
L 142.062201 -62.64 
L 115.363636 -62.64 
z
" style="stroke: #cc6666; stroke-opacity: 0.1"/>
    </defs>
    <g clip-path="url(#p0bbb3e49fe)">
     <use xlink:href="#ma481a08fc4" x="0" y="432" style="fill: #cc6666; fill-opacity: 0.1; stroke: #cc6666; stroke-opacity: 0.1"/>
    </g>
   </g>
   <g id="PolyCollection_6">
    <defs>
     <path id="m5b3763d63e" d="M 115.363636 -62.64 
L 115.363636 -64.652946 
L 142.062201 -66.01755 
L 168.760766 -65.502582 
L 195.45933 -71.776056 
L 222.157895 -69.133293 
L 248.856459 -67.587153 
L 275.555024 -67.248781 
L 302.253589 -67.135167 
L 328.952153 -67.913176 
L 355.650718 -66.825198 
L 382.349282 -64.102164 
L 409.047847 -62.964788 
L 435.746411 -62.826475 
L 462.444976 -62.716566 
L 489.143541 -62.707921 
L 542.54067 -62.761024 
L 569.239234 -62.723976 
L 595.937799 -62.733855 
L 622.636364 -62.770903 
L 622.636364 -62.64 
L 622.636364 -62.64 
L 595.937799 -62.64 
L 569.239234 -62.64 
L 542.54067 -62.64 
L 489.143541 -62.64 
L 462.444976 -62.64 
L 435.746411 -62.64 
L 409.047847 -62.64 
L 382.349282 -62.64 
L 355.650718 -62.64 
L 328.952153 -62.64 
L 302.253589 -62.64 
L 275.555024 -62.64 
L 248.856459 -62.64 
L 222.157895 -62.64 
L 195.45933 -62.64 
L 168.760766 -62.64 
L 142.062201 -62.64 
L 115.363636 -62.64 
z
" style="stroke: #999999; stroke-opacity: 0.1"/>
    </defs>
    <g clip-path="url(#p0bbb3e49fe)">
     <use xlink:href="#m5b3763d63e" x="0" y="432" style="fill: #999999; fill-opacity: 0.1; stroke: #999999; stroke-opacity: 0.1"/>
    </g>
   </g>
   <g id="matplotlib.axis_1">
    <g id="xtick_1">
     <g id="line2d_1">
      <path d="M 142.062201 384.48 
L 142.062201 51.84 
" clip-path="url(#p0bbb3e49fe)" style="fill: none; stroke-dasharray: 2.96,1.28; stroke-dashoffset: 0; stroke: #b0b0b0; stroke-opacity: 0.6; stroke-width: 0.8"/>
     </g>
     <g id="line2d_2">
      <defs>
       <path id="m32ff966b3a" d="M 0 0 
L 0 3.5 
" style="stroke: #000000; stroke-width: 0.8"/>
      </defs>
      <g>
       <use xlink:href="#m32ff966b3a" x="142.062201" y="384.48" style="stroke: #000000; stroke-width: 0.8"/>
      </g>
     </g>
     <g id="text_1">
      <!-- 2004 -->
      <g transform="translate(129.337201 399.078438) scale(0.1 -0.1)">
       <defs>
        <path id="DejaVuSans-32" d="M 1228 531 
L 3431 531 
L 3431 0 
L 469 0 
L 469 531 
Q 828 903 1448 1529 
Q 2069 2156 2228 2338 
Q 2531 2678 2651 2914 
Q 2772 3150 2772 3378 
Q 2772 3750 2511 3984 
Q 2250 4219 1831 4219 
Q 1534 4219 1204 4116 
Q 875 4013 500 3803 
L 500 4441 
Q 881 4594 1212 4672 
Q 1544 4750 1819 4750 
Q 2544 4750 2975 4387 
Q 3406 4025 3406 3419 
Q 3406 3131 3298 2873 
Q 3191 2616 2906 2266 
Q 2828 2175 2409 1742 
Q 1991 1309 1228 531 
z
" transform="scale(0.015625)"/>
        <path id="DejaVuSans-30" d="M 2034 4250 
Q 1547 4250 1301 3770 
Q 1056 3291 1056 2328 
Q 1056 1369 1301 889 
Q 1547 409 2034 409 
Q 2525 409 2770 889 
Q 3016 1369 3016 2328 
Q 3016 3291 2770 3770 
Q 2525 4250 2034 4250 
z
M 2034 4750 
Q 2819 4750 3233 4129 
Q 3647 3509 3647 2328 
Q 3647 1150 3233 529 
Q 2819 -91 2034 -91 
Q 1250 -91 836 529 
Q 422 1150 422 2328 
Q 422 3509 836 4129 
Q 1250 4750 2034 4750 
z
" transform="scale(0.015625)"/>
        <path id="DejaVuSans-34" d="M 2419 4116 
L 825 1625 
L 2419 1625 
L 2419 4116 
z
M 2253 4666 
L 3047 4666 
L 3047 1625 
L 3713 1625 
L 3713 1100 
L 3047 1100 
L 3047 0 
L 2419 0 
L 2419 1100 
L 313 1100 
L 313 1709 
L 2253 4666 
z
" transform="scale(0.015625)"/>
       </defs>
       <use xlink:href="#DejaVuSans-32"/>
       <use xlink:href="#DejaVuSans-30" x="63.623047"/>
       <use xlink:href="#DejaVuSans-30" x="127.246094"/>
       <use xlink:href="#DejaVuSans-34" x="190.869141"/>
      </g>
     </g>
    </g>
    <g id="xtick_2">
     <g id="line2d_3">
      <path d="M 222.157895 384.48 
L 222.157895 51.84 
" clip-path="url(#p0bbb3e49fe)" style="fill: none; stroke-dasharray: 2.96,1.28; stroke-dashoffset: 0; stroke: #b0b0b0; stroke-opacity: 0.6; stroke-width: 0.8"/>
     </g>
     <g id="line2d_4">
      <g>
       <use xlink:href="#m32ff966b3a" x="222.157895" y="384.48" style="stroke: #000000; stroke-width: 0.8"/>
      </g>
     </g>
     <g id="text_2">
      <!-- 2007 -->
      <g transform="translate(209.432895 399.078438) scale(0.1 -0.1)">
       <defs>
        <path id="DejaVuSans-37" d="M 525 4666 
L 3525 4666 
L 3525 4397 
L 1831 0 
L 1172 0 
L 2766 4134 
L 525 4134 
L 525 4666 
z
" transform="scale(0.015625)"/>
       </defs>
       <use xlink:href="#DejaVuSans-32"/>
       <use xlink:href="#DejaVuSans-30" x="63.623047"/>
       <use xlink:href="#DejaVuSans-30" x="127.246094"/>
       <use xlink:href="#DejaVuSans-37" x="190.869141"/>
      </g>
     </g>
    </g>
    <g id="xtick_3">
     <g id="line2d_5">
      <path d="M 302.253589 384.48 
L 302.253589 51.84 
" clip-path="url(#p0bbb3e49fe)" style="fill: none; stroke-dasharray: 2.96,1.28; stroke-dashoffset: 0; stroke: #b0b0b0; stroke-opacity: 0.6; stroke-width: 0.8"/>
     </g>
     <g id="line2d_6">
      <g>
       <use xlink:href="#m32ff966b3a" x="302.253589" y="384.48" style="stroke: #000000; stroke-width: 0.8"/>
      </g>
     </g>
     <g id="text_3">
      <!-- 2010 -->
      <g transform="translate(289.528589 399.078438) scale(0.1 -0.1)">
       <defs>
        <path id="DejaVuSans-31" d="M 794 531 
L 1825 531 
L 1825 4091 
L 703 3866 
L 703 4441 
L 1819 4666 
L 2450 4666 
L 2450 531 
L 3481 531 
L 3481 0 
L 794 0 
L 794 531 
z
" transform="scale(0.015625)"/>
       </defs>
       <use xlink:href="#DejaVuSans-32"/>
       <use xlink:href="#DejaVuSans-30" x="63.623047"/>
       <use xlink:href="#DejaVuSans-31" x="127.246094"/>
       <use xlink:href="#DejaVuSans-30" x="190.869141"/>
      </g>
     </g>
    </g>
    <g id="xtick_4">
     <g id="line2d_7">
      <path d="M 382.349282 384.48 
L 382.349282 51.84 
" clip-path="url(#p0bbb3e49fe)" style="fill: none; stroke-dasharray: 2.96,1.28; stroke-dashoffset: 0; stroke: #b0b0b0; stroke-opacity: 0.6; stroke-width: 0.8"/>
     </g>
     <g id="line2d_8">
      <g>
       <use xlink:href="#m32ff966b3a" x="382.349282" y="384.48" style="stroke: #000000; stroke-width: 0.8"/>
      </g>
     </g>
     <g id="text_4">
      <!-- 2013 -->
      <g transform="translate(369.624282 399.078438) scale(0.1 -0.1)">
       <defs>
        <path id="DejaVuSans-33" d="M 2597 2516 
Q 3050 2419 3304 2112 
Q 3559 1806 3559 1356 
Q 3559 666 3084 287 
Q 2609 -91 1734 -91 
Q 1441 -91 1130 -33 
Q 819 25 488 141 
L 488 750 
Q 750 597 1062 519 
Q 1375 441 1716 441 
Q 2309 441 2620 675 
Q 2931 909 2931 1356 
Q 2931 1769 2642 2001 
Q 2353 2234 1838 2234 
L 1294 2234 
L 1294 2753 
L 1863 2753 
Q 2328 2753 2575 2939 
Q 2822 3125 2822 3475 
Q 2822 3834 2567 4026 
Q 2313 4219 1838 4219 
Q 1578 4219 1281 4162 
Q 984 4106 628 3988 
L 628 4550 
Q 988 4650 1302 4700 
Q 1616 4750 1894 4750 
Q 2613 4750 3031 4423 
Q 3450 4097 3450 3541 
Q 3450 3153 3228 2886 
Q 3006 2619 2597 2516 
z
" transform="scale(0.015625)"/>
       </defs>
       <use xlink:href="#DejaVuSans-32"/>
       <use xlink:href="#DejaVuSans-30" x="63.623047"/>
       <use xlink:href="#DejaVuSans-31" x="127.246094"/>
       <use xlink:href="#DejaVuSans-33" x="190.869141"/>
      </g>
     </g>
    </g>
    <g id="xtick_5">
     <g id="line2d_9">
      <path d="M 462.444976 384.48 
L 462.444976 51.84 
" clip-path="url(#p0bbb3e49fe)" style="fill: none; stroke-dasharray: 2.96,1.28; stroke-dashoffset: 0; stroke: #b0b0b0; stroke-opacity: 0.6; stroke-width: 0.8"/>
     </g>
     <g id="line2d_10">
      <g>
       <use xlink:href="#m32ff966b3a" x="462.444976" y="384.48" style="stroke: #000000; stroke-width: 0.8"/>
      </g>
     </g>
     <g id="text_5">
      <!-- 2016 -->
      <g transform="translate(449.719976 399.078438) scale(0.1 -0.1)">
       <defs>
        <path id="DejaVuSans-36" d="M 2113 2584 
Q 1688 2584 1439 2293 
Q 1191 2003 1191 1497 
Q 1191 994 1439 701 
Q 1688 409 2113 409 
Q 2538 409 2786 701 
Q 3034 994 3034 1497 
Q 3034 2003 2786 2293 
Q 2538 2584 2113 2584 
z
M 3366 4563 
L 3366 3988 
Q 3128 4100 2886 4159 
Q 2644 4219 2406 4219 
Q 1781 4219 1451 3797 
Q 1122 3375 1075 2522 
Q 1259 2794 1537 2939 
Q 1816 3084 2150 3084 
Q 2853 3084 3261 2657 
Q 3669 2231 3669 1497 
Q 3669 778 3244 343 
Q 2819 -91 2113 -91 
Q 1303 -91 875 529 
Q 447 1150 447 2328 
Q 447 3434 972 4092 
Q 1497 4750 2381 4750 
Q 2619 4750 2861 4703 
Q 3103 4656 3366 4563 
z
" transform="scale(0.015625)"/>
       </defs>
       <use xlink:href="#DejaVuSans-32"/>
       <use xlink:href="#DejaVuSans-30" x="63.623047"/>
       <use xlink:href="#DejaVuSans-31" x="127.246094"/>
       <use xlink:href="#DejaVuSans-36" x="190.869141"/>
      </g>
     </g>
    </g>
    <g id="xtick_6">
     <g id="line2d_11">
      <path d="M 542.54067 384.48 
L 542.54067 51.84 
" clip-path="url(#p0bbb3e49fe)" style="fill: none; stroke-dasharray: 2.96,1.28; stroke-dashoffset: 0; stroke: #b0b0b0; stroke-opacity: 0.6; stroke-width: 0.8"/>
     </g>
     <g id="line2d_12">
      <g>
       <use xlink:href="#m32ff966b3a" x="542.54067" y="384.48" style="stroke: #000000; stroke-width: 0.8"/>
      </g>
     </g>
     <g id="text_6">
      <!-- 2019 -->
      <g transform="translate(529.81567 399.078438) scale(0.1 -0.1)">
       <defs>
        <path id="DejaVuSans-39" d="M 703 97 
L 703 672 
Q 941 559 1184 500 
Q 1428 441 1663 441 
Q 2288 441 2617 861 
Q 2947 1281 2994 2138 
Q 2813 1869 2534 1725 
Q 2256 1581 1919 1581 
Q 1219 1581 811 2004 
Q 403 2428 403 3163 
Q 403 3881 828 4315 
Q 1253 4750 1959 4750 
Q 2769 4750 3195 4129 
Q 3622 3509 3622 2328 
Q 3622 1225 3098 567 
Q 2575 -91 1691 -91 
Q 1453 -91 1209 -44 
Q 966 3 703 97 
z
M 1959 2075 
Q 2384 2075 2632 2365 
Q 2881 2656 2881 3163 
Q 2881 3666 2632 3958 
Q 2384 4250 1959 4250 
Q 1534 4250 1286 3958 
Q 1038 3666 1038 3163 
Q 1038 2656 1286 2365 
Q 1534 2075 1959 2075 
z
" transform="scale(0.015625)"/>
       </defs>
       <use xlink:href="#DejaVuSans-32"/>
       <use xlink:href="#DejaVuSans-30" x="63.623047"/>
       <use xlink:href="#DejaVuSans-31" x="127.246094"/>
       <use xlink:href="#DejaVuSans-39" x="190.869141"/>
      </g>
     </g>
    </g>
    <g id="xtick_7">
     <g id="line2d_13">
      <path d="M 622.636364 384.48 
L 622.636364 51.84 
" clip-path="url(#p0bbb3e49fe)" style="fill: none; stroke-dasharray: 2.96,1.28; stroke-dashoffset: 0; stroke: #b0b0b0; stroke-opacity: 0.6; stroke-width: 0.8"/>
     </g>
     <g id="line2d_14">
      <g>
       <use xlink:href="#m32ff966b3a" x="622.636364" y="384.48" style="stroke: #000000; stroke-width: 0.8"/>
      </g>
     </g>
     <g id="text_7">
      <!-- 2022 -->
      <g transform="translate(609.911364 399.078438) scale(0.1 -0.1)">
       <use xlink:href="#DejaVuSans-32"/>
       <use xlink:href="#DejaVuSans-30" x="63.623047"/>
       <use xlink:href="#DejaVuSans-32" x="127.246094"/>
       <use xlink:href="#DejaVuSans-32" x="190.869141"/>
      </g>
     </g>
    </g>
    <g id="text_8">
     <!-- Year -->
     <g transform="translate(358.4125 412.756563) scale(0.1 -0.1)">
      <defs>
       <path id="DejaVuSans-59" d="M -13 4666 
L 666 4666 
L 1959 2747 
L 3244 4666 
L 3922 4666 
L 2272 2222 
L 2272 0 
L 1638 0 
L 1638 2222 
L -13 4666 
z
" transform="scale(0.015625)"/>
       <path id="DejaVuSans-65" d="M 3597 1894 
L 3597 1613 
L 953 1613 
Q 991 1019 1311 708 
Q 1631 397 2203 397 
Q 2534 397 2845 478 
Q 3156 559 3463 722 
L 3463 178 
Q 3153 47 2828 -22 
Q 2503 -91 2169 -91 
Q 1331 -91 842 396 
Q 353 884 353 1716 
Q 353 2575 817 3079 
Q 1281 3584 2069 3584 
Q 2775 3584 3186 3129 
Q 3597 2675 3597 1894 
z
M 3022 2063 
Q 3016 2534 2758 2815 
Q 2500 3097 2075 3097 
Q 1594 3097 1305 2825 
Q 1016 2553 972 2059 
L 3022 2063 
z
" transform="scale(0.015625)"/>
       <path id="DejaVuSans-61" d="M 2194 1759 
Q 1497 1759 1228 1600 
Q 959 1441 959 1056 
Q 959 750 1161 570 
Q 1363 391 1709 391 
Q 2188 391 2477 730 
Q 2766 1069 2766 1631 
L 2766 1759 
L 2194 1759 
z
M 3341 1997 
L 3341 0 
L 2766 0 
L 2766 531 
Q 2569 213 2275 61 
Q 1981 -91 1556 -91 
Q 1019 -91 701 211 
Q 384 513 384 1019 
Q 384 1609 779 1909 
Q 1175 2209 1959 2209 
L 2766 2209 
L 2766 2266 
Q 2766 2663 2505 2880 
Q 2244 3097 1772 3097 
Q 1472 3097 1187 3025 
Q 903 2953 641 2809 
L 641 3341 
Q 956 3463 1253 3523 
Q 1550 3584 1831 3584 
Q 2591 3584 2966 3190 
Q 3341 2797 3341 1997 
z
" transform="scale(0.015625)"/>
       <path id="DejaVuSans-72" d="M 2631 2963 
Q 2534 3019 2420 3045 
Q 2306 3072 2169 3072 
Q 1681 3072 1420 2755 
Q 1159 2438 1159 1844 
L 1159 0 
L 581 0 
L 581 3500 
L 1159 3500 
L 1159 2956 
Q 1341 3275 1631 3429 
Q 1922 3584 2338 3584 
Q 2397 3584 2469 3576 
Q 2541 3569 2628 3553 
L 2631 2963 
z
" transform="scale(0.015625)"/>
      </defs>
      <use xlink:href="#DejaVuSans-59"/>
      <use xlink:href="#DejaVuSans-65" x="47.833984"/>
      <use xlink:href="#DejaVuSans-61" x="109.357422"/>
      <use xlink:href="#DejaVuSans-72" x="170.636719"/>
     </g>
    </g>
   </g>
   <g id="matplotlib.axis_2">
    <g id="ytick_1">
     <g id="line2d_15">
      <path d="M 90 369.36 
L 648 369.36 
" clip-path="url(#p0bbb3e49fe)" style="fill: none; stroke-dasharray: 2.96,1.28; stroke-dashoffset: 0; stroke: #b0b0b0; stroke-opacity: 0.6; stroke-width: 0.8"/>
     </g>
     <g id="line2d_16">
      <defs>
       <path id="mda83f693cb" d="M 0 0 
L -3.5 0 
" style="stroke: #000000; stroke-width: 0.8"/>
      </defs>
      <g>
       <use xlink:href="#mda83f693cb" x="90" y="369.36" style="stroke: #000000; stroke-width: 0.8"/>
      </g>
     </g>
     <g id="text_9">
      <!-- 0 -->
      <g transform="translate(76.6375 373.159219) scale(0.1 -0.1)">
       <use xlink:href="#DejaVuSans-30"/>
      </g>
     </g>
    </g>
    <g id="ytick_2">
     <g id="line2d_17">
      <path d="M 90 307.613203 
L 648 307.613203 
" clip-path="url(#p0bbb3e49fe)" style="fill: none; stroke-dasharray: 2.96,1.28; stroke-dashoffset: 0; stroke: #b0b0b0; stroke-opacity: 0.6; stroke-width: 0.8"/>
     </g>
     <g id="line2d_18">
      <g>
       <use xlink:href="#mda83f693cb" x="90" y="307.613203" style="stroke: #000000; stroke-width: 0.8"/>
      </g>
     </g>
     <g id="text_10">
      <!-- 50,000 -->
      <g transform="translate(48.009375 311.412421) scale(0.1 -0.1)">
       <defs>
        <path id="DejaVuSans-35" d="M 691 4666 
L 3169 4666 
L 3169 4134 
L 1269 4134 
L 1269 2991 
Q 1406 3038 1543 3061 
Q 1681 3084 1819 3084 
Q 2600 3084 3056 2656 
Q 3513 2228 3513 1497 
Q 3513 744 3044 326 
Q 2575 -91 1722 -91 
Q 1428 -91 1123 -41 
Q 819 9 494 109 
L 494 744 
Q 775 591 1075 516 
Q 1375 441 1709 441 
Q 2250 441 2565 725 
Q 2881 1009 2881 1497 
Q 2881 1984 2565 2268 
Q 2250 2553 1709 2553 
Q 1456 2553 1204 2497 
Q 953 2441 691 2322 
L 691 4666 
z
" transform="scale(0.015625)"/>
        <path id="DejaVuSans-2c" d="M 750 794 
L 1409 794 
L 1409 256 
L 897 -744 
L 494 -744 
L 750 256 
L 750 794 
z
" transform="scale(0.015625)"/>
       </defs>
       <use xlink:href="#DejaVuSans-35"/>
       <use xlink:href="#DejaVuSans-30" x="63.623047"/>
       <use xlink:href="#DejaVuSans-2c" x="127.246094"/>
       <use xlink:href="#DejaVuSans-30" x="159.033203"/>
       <use xlink:href="#DejaVuSans-30" x="222.65625"/>
       <use xlink:href="#DejaVuSans-30" x="286.279297"/>
      </g>
     </g>
    </g>
    <g id="ytick_3">
     <g id="line2d_19">
      <path d="M 90 245.866405 
L 648 245.866405 
" clip-path="url(#p0bbb3e49fe)" style="fill: none; stroke-dasharray: 2.96,1.28; stroke-dashoffset: 0; stroke: #b0b0b0; stroke-opacity: 0.6; stroke-width: 0.8"/>
     </g>
     <g id="line2d_20">
      <g>
       <use xlink:href="#mda83f693cb" x="90" y="245.866405" style="stroke: #000000; stroke-width: 0.8"/>
      </g>
     </g>
     <g id="text_11">
      <!-- 100,000 -->
      <g transform="translate(41.646875 249.665624) scale(0.1 -0.1)">
       <use xlink:href="#DejaVuSans-31"/>
       <use xlink:href="#DejaVuSans-30" x="63.623047"/>
       <use xlink:href="#DejaVuSans-30" x="127.246094"/>
       <use xlink:href="#DejaVuSans-2c" x="190.869141"/>
       <use xlink:href="#DejaVuSans-30" x="222.65625"/>
       <use xlink:href="#DejaVuSans-30" x="286.279297"/>
       <use xlink:href="#DejaVuSans-30" x="349.902344"/>
      </g>
     </g>
    </g>
    <g id="ytick_4">
     <g id="line2d_21">
      <path d="M 90 184.119608 
L 648 184.119608 
" clip-path="url(#p0bbb3e49fe)" style="fill: none; stroke-dasharray: 2.96,1.28; stroke-dashoffset: 0; stroke: #b0b0b0; stroke-opacity: 0.6; stroke-width: 0.8"/>
     </g>
     <g id="line2d_22">
      <g>
       <use xlink:href="#mda83f693cb" x="90" y="184.119608" style="stroke: #000000; stroke-width: 0.8"/>
      </g>
     </g>
     <g id="text_12">
      <!-- 150,000 -->
      <g transform="translate(41.646875 187.918827) scale(0.1 -0.1)">
       <use xlink:href="#DejaVuSans-31"/>
       <use xlink:href="#DejaVuSans-35" x="63.623047"/>
       <use xlink:href="#DejaVuSans-30" x="127.246094"/>
       <use xlink:href="#DejaVuSans-2c" x="190.869141"/>
       <use xlink:href="#DejaVuSans-30" x="222.65625"/>
       <use xlink:href="#DejaVuSans-30" x="286.279297"/>
       <use xlink:href="#DejaVuSans-30" x="349.902344"/>
      </g>
     </g>
    </g>
    <g id="ytick_5">
     <g id="line2d_23">
      <path d="M 90 122.372811 
L 648 122.372811 
" clip-path="url(#p0bbb3e49fe)" style="fill: none; stroke-dasharray: 2.96,1.28; stroke-dashoffset: 0; stroke: #b0b0b0; stroke-opacity: 0.6; stroke-width: 0.8"/>
     </g>
     <g id="line2d_24">
      <g>
       <use xlink:href="#mda83f693cb" x="90" y="122.372811" style="stroke: #000000; stroke-width: 0.8"/>
      </g>
     </g>
     <g id="text_13">
      <!-- 200,000 -->
      <g transform="translate(41.646875 126.17203) scale(0.1 -0.1)">
       <use xlink:href="#DejaVuSans-32"/>
       <use xlink:href="#DejaVuSans-30" x="63.623047"/>
       <use xlink:href="#DejaVuSans-30" x="127.246094"/>
       <use xlink:href="#DejaVuSans-2c" x="190.869141"/>
       <use xlink:href="#DejaVuSans-30" x="222.65625"/>
       <use xlink:href="#DejaVuSans-30" x="286.279297"/>
       <use xlink:href="#DejaVuSans-30" x="349.902344"/>
      </g>
     </g>
    </g>
    <g id="ytick_6">
     <g id="line2d_25">
      <path d="M 90 60.626014 
L 648 60.626014 
" clip-path="url(#p0bbb3e49fe)" style="fill: none; stroke-dasharray: 2.96,1.28; stroke-dashoffset: 0; stroke: #b0b0b0; stroke-opacity: 0.6; stroke-width: 0.8"/>
     </g>
     <g id="line2d_26">
      <g>
       <use xlink:href="#mda83f693cb" x="90" y="60.626014" style="stroke: #000000; stroke-width: 0.8"/>
      </g>
     </g>
     <g id="text_14">
      <!-- 250,000 -->
      <g transform="translate(41.646875 64.425232) scale(0.1 -0.1)">
       <use xlink:href="#DejaVuSans-32"/>
       <use xlink:href="#DejaVuSans-35" x="63.623047"/>
       <use xlink:href="#DejaVuSans-30" x="127.246094"/>
       <use xlink:href="#DejaVuSans-2c" x="190.869141"/>
       <use xlink:href="#DejaVuSans-30" x="222.65625"/>
       <use xlink:href="#DejaVuSans-30" x="286.279297"/>
       <use xlink:href="#DejaVuSans-30" x="349.902344"/>
      </g>
     </g>
    </g>
    <g id="text_15">
     <!-- Number of Reported Incidents -->
     <g transform="translate(35.15125 308.477812) rotate(-90) scale(0.12 -0.12)">
      <defs>
       <path id="DejaVuSans-4e" d="M 628 4666 
L 1478 4666 
L 3547 763 
L 3547 4666 
L 4159 4666 
L 4159 0 
L 3309 0 
L 1241 3903 
L 1241 0 
L 628 0 
L 628 4666 
z
" transform="scale(0.015625)"/>
       <path id="DejaVuSans-75" d="M 544 1381 
L 544 3500 
L 1119 3500 
L 1119 1403 
Q 1119 906 1312 657 
Q 1506 409 1894 409 
Q 2359 409 2629 706 
Q 2900 1003 2900 1516 
L 2900 3500 
L 3475 3500 
L 3475 0 
L 2900 0 
L 2900 538 
Q 2691 219 2414 64 
Q 2138 -91 1772 -91 
Q 1169 -91 856 284 
Q 544 659 544 1381 
z
M 1991 3584 
L 1991 3584 
z
" transform="scale(0.015625)"/>
       <path id="DejaVuSans-6d" d="M 3328 2828 
Q 3544 3216 3844 3400 
Q 4144 3584 4550 3584 
Q 5097 3584 5394 3201 
Q 5691 2819 5691 2113 
L 5691 0 
L 5113 0 
L 5113 2094 
Q 5113 2597 4934 2840 
Q 4756 3084 4391 3084 
Q 3944 3084 3684 2787 
Q 3425 2491 3425 1978 
L 3425 0 
L 2847 0 
L 2847 2094 
Q 2847 2600 2669 2842 
Q 2491 3084 2119 3084 
Q 1678 3084 1418 2786 
Q 1159 2488 1159 1978 
L 1159 0 
L 581 0 
L 581 3500 
L 1159 3500 
L 1159 2956 
Q 1356 3278 1631 3431 
Q 1906 3584 2284 3584 
Q 2666 3584 2933 3390 
Q 3200 3197 3328 2828 
z
" transform="scale(0.015625)"/>
       <path id="DejaVuSans-62" d="M 3116 1747 
Q 3116 2381 2855 2742 
Q 2594 3103 2138 3103 
Q 1681 3103 1420 2742 
Q 1159 2381 1159 1747 
Q 1159 1113 1420 752 
Q 1681 391 2138 391 
Q 2594 391 2855 752 
Q 3116 1113 3116 1747 
z
M 1159 2969 
Q 1341 3281 1617 3432 
Q 1894 3584 2278 3584 
Q 2916 3584 3314 3078 
Q 3713 2572 3713 1747 
Q 3713 922 3314 415 
Q 2916 -91 2278 -91 
Q 1894 -91 1617 61 
Q 1341 213 1159 525 
L 1159 0 
L 581 0 
L 581 4863 
L 1159 4863 
L 1159 2969 
z
" transform="scale(0.015625)"/>
       <path id="DejaVuSans-20" transform="scale(0.015625)"/>
       <path id="DejaVuSans-6f" d="M 1959 3097 
Q 1497 3097 1228 2736 
Q 959 2375 959 1747 
Q 959 1119 1226 758 
Q 1494 397 1959 397 
Q 2419 397 2687 759 
Q 2956 1122 2956 1747 
Q 2956 2369 2687 2733 
Q 2419 3097 1959 3097 
z
M 1959 3584 
Q 2709 3584 3137 3096 
Q 3566 2609 3566 1747 
Q 3566 888 3137 398 
Q 2709 -91 1959 -91 
Q 1206 -91 779 398 
Q 353 888 353 1747 
Q 353 2609 779 3096 
Q 1206 3584 1959 3584 
z
" transform="scale(0.015625)"/>
       <path id="DejaVuSans-66" d="M 2375 4863 
L 2375 4384 
L 1825 4384 
Q 1516 4384 1395 4259 
Q 1275 4134 1275 3809 
L 1275 3500 
L 2222 3500 
L 2222 3053 
L 1275 3053 
L 1275 0 
L 697 0 
L 697 3053 
L 147 3053 
L 147 3500 
L 697 3500 
L 697 3744 
Q 697 4328 969 4595 
Q 1241 4863 1831 4863 
L 2375 4863 
z
" transform="scale(0.015625)"/>
       <path id="DejaVuSans-52" d="M 2841 2188 
Q 3044 2119 3236 1894 
Q 3428 1669 3622 1275 
L 4263 0 
L 3584 0 
L 2988 1197 
Q 2756 1666 2539 1819 
Q 2322 1972 1947 1972 
L 1259 1972 
L 1259 0 
L 628 0 
L 628 4666 
L 2053 4666 
Q 2853 4666 3247 4331 
Q 3641 3997 3641 3322 
Q 3641 2881 3436 2590 
Q 3231 2300 2841 2188 
z
M 1259 4147 
L 1259 2491 
L 2053 2491 
Q 2509 2491 2742 2702 
Q 2975 2913 2975 3322 
Q 2975 3731 2742 3939 
Q 2509 4147 2053 4147 
L 1259 4147 
z
" transform="scale(0.015625)"/>
       <path id="DejaVuSans-70" d="M 1159 525 
L 1159 -1331 
L 581 -1331 
L 581 3500 
L 1159 3500 
L 1159 2969 
Q 1341 3281 1617 3432 
Q 1894 3584 2278 3584 
Q 2916 3584 3314 3078 
Q 3713 2572 3713 1747 
Q 3713 922 3314 415 
Q 2916 -91 2278 -91 
Q 1894 -91 1617 61 
Q 1341 213 1159 525 
z
M 3116 1747 
Q 3116 2381 2855 2742 
Q 2594 3103 2138 3103 
Q 1681 3103 1420 2742 
Q 1159 2381 1159 1747 
Q 1159 1113 1420 752 
Q 1681 391 2138 391 
Q 2594 391 2855 752 
Q 3116 1113 3116 1747 
z
" transform="scale(0.015625)"/>
       <path id="DejaVuSans-74" d="M 1172 4494 
L 1172 3500 
L 2356 3500 
L 2356 3053 
L 1172 3053 
L 1172 1153 
Q 1172 725 1289 603 
Q 1406 481 1766 481 
L 2356 481 
L 2356 0 
L 1766 0 
Q 1100 0 847 248 
Q 594 497 594 1153 
L 594 3053 
L 172 3053 
L 172 3500 
L 594 3500 
L 594 4494 
L 1172 4494 
z
" transform="scale(0.015625)"/>
       <path id="DejaVuSans-64" d="M 2906 2969 
L 2906 4863 
L 3481 4863 
L 3481 0 
L 2906 0 
L 2906 525 
Q 2725 213 2448 61 
Q 2172 -91 1784 -91 
Q 1150 -91 751 415 
Q 353 922 353 1747 
Q 353 2572 751 3078 
Q 1150 3584 1784 3584 
Q 2172 3584 2448 3432 
Q 2725 3281 2906 2969 
z
M 947 1747 
Q 947 1113 1208 752 
Q 1469 391 1925 391 
Q 2381 391 2643 752 
Q 2906 1113 2906 1747 
Q 2906 2381 2643 2742 
Q 2381 3103 1925 3103 
Q 1469 3103 1208 2742 
Q 947 2381 947 1747 
z
" transform="scale(0.015625)"/>
       <path id="DejaVuSans-49" d="M 628 4666 
L 1259 4666 
L 1259 0 
L 628 0 
L 628 4666 
z
" transform="scale(0.015625)"/>
       <path id="DejaVuSans-6e" d="M 3513 2113 
L 3513 0 
L 2938 0 
L 2938 2094 
Q 2938 2591 2744 2837 
Q 2550 3084 2163 3084 
Q 1697 3084 1428 2787 
Q 1159 2491 1159 1978 
L 1159 0 
L 581 0 
L 581 3500 
L 1159 3500 
L 1159 2956 
Q 1366 3272 1645 3428 
Q 1925 3584 2291 3584 
Q 2894 3584 3203 3211 
Q 3513 2838 3513 2113 
z
" transform="scale(0.015625)"/>
       <path id="DejaVuSans-63" d="M 3122 3366 
L 3122 2828 
Q 2878 2963 2633 3030 
Q 2388 3097 2138 3097 
Q 1578 3097 1268 2742 
Q 959 2388 959 1747 
Q 959 1106 1268 751 
Q 1578 397 2138 397 
Q 2388 397 2633 464 
Q 2878 531 3122 666 
L 3122 134 
Q 2881 22 2623 -34 
Q 2366 -91 2075 -91 
Q 1284 -91 818 406 
Q 353 903 353 1747 
Q 353 2603 823 3093 
Q 1294 3584 2113 3584 
Q 2378 3584 2631 3529 
Q 2884 3475 3122 3366 
z
" transform="scale(0.015625)"/>
       <path id="DejaVuSans-69" d="M 603 3500 
L 1178 3500 
L 1178 0 
L 603 0 
L 603 3500 
z
M 603 4863 
L 1178 4863 
L 1178 4134 
L 603 4134 
L 603 4863 
z
" transform="scale(0.015625)"/>
       <path id="DejaVuSans-73" d="M 2834 3397 
L 2834 2853 
Q 2591 2978 2328 3040 
Q 2066 3103 1784 3103 
Q 1356 3103 1142 2972 
Q 928 2841 928 2578 
Q 928 2378 1081 2264 
Q 1234 2150 1697 2047 
L 1894 2003 
Q 2506 1872 2764 1633 
Q 3022 1394 3022 966 
Q 3022 478 2636 193 
Q 2250 -91 1575 -91 
Q 1294 -91 989 -36 
Q 684 19 347 128 
L 347 722 
Q 666 556 975 473 
Q 1284 391 1588 391 
Q 1994 391 2212 530 
Q 2431 669 2431 922 
Q 2431 1156 2273 1281 
Q 2116 1406 1581 1522 
L 1381 1569 
Q 847 1681 609 1914 
Q 372 2147 372 2553 
Q 372 3047 722 3315 
Q 1072 3584 1716 3584 
Q 2034 3584 2315 3537 
Q 2597 3491 2834 3397 
z
" transform="scale(0.015625)"/>
      </defs>
      <use xlink:href="#DejaVuSans-4e"/>
      <use xlink:href="#DejaVuSans-75" x="74.804688"/>
      <use xlink:href="#DejaVuSans-6d" x="138.183594"/>
      <use xlink:href="#DejaVuSans-62" x="235.595703"/>
      <use xlink:href="#DejaVuSans-65" x="299.072266"/>
      <use xlink:href="#DejaVuSans-72" x="360.595703"/>
      <use xlink:href="#DejaVuSans-20" x="401.708984"/>
      <use xlink:href="#DejaVuSans-6f" x="433.496094"/>
      <use xlink:href="#DejaVuSans-66" x="494.677734"/>
      <use xlink:href="#DejaVuSans-20" x="529.882812"/>
      <use xlink:href="#DejaVuSans-52" x="561.669922"/>
      <use xlink:href="#DejaVuSans-65" x="626.652344"/>
      <use xlink:href="#DejaVuSans-70" x="688.175781"/>
      <use xlink:href="#DejaVuSans-6f" x="751.652344"/>
      <use xlink:href="#DejaVuSans-72" x="812.833984"/>
      <use xlink:href="#DejaVuSans-74" x="853.947266"/>
      <use xlink:href="#DejaVuSans-65" x="893.15625"/>
      <use xlink:href="#DejaVuSans-64" x="954.679688"/>
      <use xlink:href="#DejaVuSans-20" x="1018.15625"/>
      <use xlink:href="#DejaVuSans-49" x="1049.943359"/>
      <use xlink:href="#DejaVuSans-6e" x="1079.435547"/>
      <use xlink:href="#DejaVuSans-63" x="1142.814453"/>
      <use xlink:href="#DejaVuSans-69" x="1197.794922"/>
      <use xlink:href="#DejaVuSans-64" x="1225.578125"/>
      <use xlink:href="#DejaVuSans-65" x="1289.054688"/>
      <use xlink:href="#DejaVuSans-6e" x="1350.578125"/>
      <use xlink:href="#DejaVuSans-74" x="1413.957031"/>
      <use xlink:href="#DejaVuSans-73" x="1453.166016"/>
     </g>
    </g>
   </g>
   <g id="line2d_27">
    <path d="M 115.363636 338.235909 
L 142.062201 314.348543 
L 168.760766 295.442909 
L 195.45933 271.51232 
L 222.157895 285.932667 
L 248.856459 273.116502 
L 275.555024 267.224623 
L 302.253589 262.812196 
L 328.952153 237.839322 
L 355.650718 268.161939 
L 382.349282 336.823143 
L 409.047847 361.924451 
L 435.746411 365.387211 
L 462.444976 367.070429 
L 489.143541 366.939526 
L 542.54067 366.454196 
L 569.239234 367.670608 
L 595.937799 368.075667 
L 622.636364 366.922236 
" clip-path="url(#p0bbb3e49fe)" style="fill: none; stroke: #ffcc99; stroke-width: 3; stroke-linecap: square"/>
   </g>
   <g id="line2d_28">
    <path d="M 115.363636 295.551583 
L 142.062201 234.12093 
L 168.760766 205.490175 
L 195.45933 156.652163 
L 222.157895 172.80636 
L 248.856459 135.743462 
L 275.555024 109.223213 
L 302.253589 105.357863 
L 328.952153 66.96 
L 355.650718 137.695896 
L 382.349282 285.444868 
L 409.047847 348.573558 
L 435.746411 359.110032 
L 462.444976 364.2486 
L 489.143541 365.377332 
L 542.54067 364.994501 
L 569.239234 366.552991 
L 595.937799 366.716002 
L 622.636364 364.682063 
" clip-path="url(#p0bbb3e49fe)" style="fill: none; stroke: #669999; stroke-width: 3; stroke-linecap: square"/>
   </g>
   <g id="line2d_29">
    <path d="M 115.363636 326.116248 
L 142.062201 285.037339 
L 168.760766 260.910395 
L 195.45933 221.653016 
L 222.157895 224.050027 
L 248.856459 204.865297 
L 275.555024 190.297993 
L 302.253589 181.660851 
L 328.952153 161.516576 
L 355.650718 205.644542 
L 382.349282 307.434137 
L 409.047847 354.575347 
L 435.746411 361.973848 
L 462.444976 365.348928 
L 489.143541 365.88489 
L 542.54067 365.271127 
L 569.239234 366.340582 
L 595.937799 366.504828 
L 622.636364 364.653659 
" clip-path="url(#p0bbb3e49fe)" style="fill: none; stroke: #996666; stroke-width: 3; stroke-linecap: square"/>
   </g>
   <g id="line2d_30">
    <path d="M 115.363636 343.275683 
L 142.062201 314.402881 
L 168.760766 299.675034 
L 195.45933 276.794141 
L 222.157895 283.769059 
L 248.856459 277.117694 
L 275.555024 276.999141 
L 302.253589 275.907457 
L 328.952153 267.36911 
L 355.650718 290.12157 
L 382.349282 340.380993 
L 409.047847 362.445594 
L 435.746411 366.094829 
L 462.444976 367.24085 
L 489.143541 367.62862 
L 542.54067 367.300127 
L 569.239234 367.540939 
L 595.937799 367.603921 
L 622.636364 366.788863 
" clip-path="url(#p0bbb3e49fe)" style="fill: none; stroke: #006699; stroke-width: 3; stroke-linecap: square"/>
   </g>
   <g id="line2d_31">
    <path d="M 115.363636 355.594169 
L 142.062201 337.656724 
L 168.760766 323.641436 
L 195.45933 303.844178 
L 222.157895 303.868877 
L 248.856459 294.638966 
L 275.555024 290.962561 
L 302.253589 284.259329 
L 328.952153 273.568489 
L 355.650718 292.2506 
L 382.349282 341.756712 
L 409.047847 363.176676 
L 435.746411 366.627087 
L 462.444976 367.691602 
L 489.143541 367.947233 
L 542.54067 367.627385 
L 569.239234 367.907715 
L 595.937799 367.960818 
L 622.636364 367.353229 
" clip-path="url(#p0bbb3e49fe)" style="fill: none; stroke: #cc6666; stroke-width: 3; stroke-linecap: square"/>
   </g>
   <g id="line2d_32">
    <path d="M 115.363636 367.347054 
L 142.062201 365.98245 
L 168.760766 366.497418 
L 195.45933 360.223944 
L 222.157895 362.866707 
L 248.856459 364.412847 
L 275.555024 364.751219 
L 302.253589 364.864833 
L 328.952153 364.086824 
L 355.650718 365.174802 
L 382.349282 367.897836 
L 409.047847 369.035212 
L 435.746411 369.173525 
L 462.444976 369.283434 
L 489.143541 369.292079 
L 542.54067 369.238976 
L 569.239234 369.276024 
L 595.937799 369.266145 
L 622.636364 369.229097 
" clip-path="url(#p0bbb3e49fe)" style="fill: none; stroke: #999999; stroke-width: 3; stroke-linecap: square"/>
   </g>
   <g id="patch_3">
    <path d="M 90 384.48 
L 90 51.84 
" style="fill: none; stroke: #000000; stroke-width: 0.8; stroke-linejoin: miter; stroke-linecap: square"/>
   </g>
   <g id="patch_4">
    <path d="M 648 384.48 
L 648 51.84 
" style="fill: none; stroke: #000000; stroke-width: 0.8; stroke-linejoin: miter; stroke-linecap: square"/>
   </g>
   <g id="patch_5">
    <path d="M 90 384.48 
L 648 384.48 
" style="fill: none; stroke: #000000; stroke-width: 0.8; stroke-linejoin: miter; stroke-linecap: square"/>
   </g>
   <g id="patch_6">
    <path d="M 90 51.84 
L 648 51.84 
" style="fill: none; stroke: #000000; stroke-width: 0.8; stroke-linejoin: miter; stroke-linecap: square"/>
   </g>
   <g id="legend_1">
    <g id="patch_7">
     <path d="M 502.05 147.90875 
L 641 147.90875 
Q 643 147.90875 643 145.90875 
L 643 58.84 
Q 643 56.84 641 56.84 
L 502.05 56.84 
Q 500.05 56.84 500.05 58.84 
L 500.05 145.90875 
Q 500.05 147.90875 502.05 147.90875 
z
" style="fill: #ffffff; opacity: 0.8; stroke: #cccccc; stroke-linejoin: miter"/>
    </g>
    <g id="line2d_33">
     <path d="M 504.05 64.938437 
L 514.05 64.938437 
L 524.05 64.938437 
" style="fill: none; stroke: #ffcc99; stroke-width: 3; stroke-linecap: square"/>
    </g>
    <g id="text_16">
     <!-- Ages 17 and younger -->
     <g transform="translate(532.05 68.438437) scale(0.1 -0.1)">
      <defs>
       <path id="DejaVuSans-41" d="M 2188 4044 
L 1331 1722 
L 3047 1722 
L 2188 4044 
z
M 1831 4666 
L 2547 4666 
L 4325 0 
L 3669 0 
L 3244 1197 
L 1141 1197 
L 716 0 
L 50 0 
L 1831 4666 
z
" transform="scale(0.015625)"/>
       <path id="DejaVuSans-67" d="M 2906 1791 
Q 2906 2416 2648 2759 
Q 2391 3103 1925 3103 
Q 1463 3103 1205 2759 
Q 947 2416 947 1791 
Q 947 1169 1205 825 
Q 1463 481 1925 481 
Q 2391 481 2648 825 
Q 2906 1169 2906 1791 
z
M 3481 434 
Q 3481 -459 3084 -895 
Q 2688 -1331 1869 -1331 
Q 1566 -1331 1297 -1286 
Q 1028 -1241 775 -1147 
L 775 -588 
Q 1028 -725 1275 -790 
Q 1522 -856 1778 -856 
Q 2344 -856 2625 -561 
Q 2906 -266 2906 331 
L 2906 616 
Q 2728 306 2450 153 
Q 2172 0 1784 0 
Q 1141 0 747 490 
Q 353 981 353 1791 
Q 353 2603 747 3093 
Q 1141 3584 1784 3584 
Q 2172 3584 2450 3431 
Q 2728 3278 2906 2969 
L 2906 3500 
L 3481 3500 
L 3481 434 
z
" transform="scale(0.015625)"/>
       <path id="DejaVuSans-79" d="M 2059 -325 
Q 1816 -950 1584 -1140 
Q 1353 -1331 966 -1331 
L 506 -1331 
L 506 -850 
L 844 -850 
Q 1081 -850 1212 -737 
Q 1344 -625 1503 -206 
L 1606 56 
L 191 3500 
L 800 3500 
L 1894 763 
L 2988 3500 
L 3597 3500 
L 2059 -325 
z
" transform="scale(0.015625)"/>
      </defs>
      <use xlink:href="#DejaVuSans-41"/>
      <use xlink:href="#DejaVuSans-67" x="68.408203"/>
      <use xlink:href="#DejaVuSans-65" x="131.884766"/>
      <use xlink:href="#DejaVuSans-73" x="193.408203"/>
      <use xlink:href="#DejaVuSans-20" x="245.507812"/>
      <use xlink:href="#DejaVuSans-31" x="277.294922"/>
      <use xlink:href="#DejaVuSans-37" x="340.917969"/>
      <use xlink:href="#DejaVuSans-20" x="404.541016"/>
      <use xlink:href="#DejaVuSans-61" x="436.328125"/>
      <use xlink:href="#DejaVuSans-6e" x="497.607422"/>
      <use xlink:href="#DejaVuSans-64" x="560.986328"/>
      <use xlink:href="#DejaVuSans-20" x="624.462891"/>
      <use xlink:href="#DejaVuSans-79" x="656.25"/>
      <use xlink:href="#DejaVuSans-6f" x="715.429688"/>
      <use xlink:href="#DejaVuSans-75" x="776.611328"/>
      <use xlink:href="#DejaVuSans-6e" x="839.990234"/>
      <use xlink:href="#DejaVuSans-67" x="903.369141"/>
      <use xlink:href="#DejaVuSans-65" x="966.845703"/>
      <use xlink:href="#DejaVuSans-72" x="1028.369141"/>
     </g>
    </g>
    <g id="line2d_34">
     <path d="M 504.05 79.616562 
L 514.05 79.616562 
L 524.05 79.616562 
" style="fill: none; stroke: #669999; stroke-width: 3; stroke-linecap: square"/>
    </g>
    <g id="text_17">
     <!-- Ages 18 to 24 -->
     <g transform="translate(532.05 83.116562) scale(0.1 -0.1)">
      <defs>
       <path id="DejaVuSans-38" d="M 2034 2216 
Q 1584 2216 1326 1975 
Q 1069 1734 1069 1313 
Q 1069 891 1326 650 
Q 1584 409 2034 409 
Q 2484 409 2743 651 
Q 3003 894 3003 1313 
Q 3003 1734 2745 1975 
Q 2488 2216 2034 2216 
z
M 1403 2484 
Q 997 2584 770 2862 
Q 544 3141 544 3541 
Q 544 4100 942 4425 
Q 1341 4750 2034 4750 
Q 2731 4750 3128 4425 
Q 3525 4100 3525 3541 
Q 3525 3141 3298 2862 
Q 3072 2584 2669 2484 
Q 3125 2378 3379 2068 
Q 3634 1759 3634 1313 
Q 3634 634 3220 271 
Q 2806 -91 2034 -91 
Q 1263 -91 848 271 
Q 434 634 434 1313 
Q 434 1759 690 2068 
Q 947 2378 1403 2484 
z
M 1172 3481 
Q 1172 3119 1398 2916 
Q 1625 2713 2034 2713 
Q 2441 2713 2670 2916 
Q 2900 3119 2900 3481 
Q 2900 3844 2670 4047 
Q 2441 4250 2034 4250 
Q 1625 4250 1398 4047 
Q 1172 3844 1172 3481 
z
" transform="scale(0.015625)"/>
      </defs>
      <use xlink:href="#DejaVuSans-41"/>
      <use xlink:href="#DejaVuSans-67" x="68.408203"/>
      <use xlink:href="#DejaVuSans-65" x="131.884766"/>
      <use xlink:href="#DejaVuSans-73" x="193.408203"/>
      <use xlink:href="#DejaVuSans-20" x="245.507812"/>
      <use xlink:href="#DejaVuSans-31" x="277.294922"/>
      <use xlink:href="#DejaVuSans-38" x="340.917969"/>
      <use xlink:href="#DejaVuSans-20" x="404.541016"/>
      <use xlink:href="#DejaVuSans-74" x="436.328125"/>
      <use xlink:href="#DejaVuSans-6f" x="475.537109"/>
      <use xlink:href="#DejaVuSans-20" x="536.71875"/>
      <use xlink:href="#DejaVuSans-32" x="568.505859"/>
      <use xlink:href="#DejaVuSans-34" x="632.128906"/>
     </g>
    </g>
    <g id="line2d_35">
     <path d="M 504.05 94.294687 
L 514.05 94.294687 
L 524.05 94.294687 
" style="fill: none; stroke: #996666; stroke-width: 3; stroke-linecap: square"/>
    </g>
    <g id="text_18">
     <!-- Ages 25 to 34 -->
     <g transform="translate(532.05 97.794687) scale(0.1 -0.1)">
      <use xlink:href="#DejaVuSans-41"/>
      <use xlink:href="#DejaVuSans-67" x="68.408203"/>
      <use xlink:href="#DejaVuSans-65" x="131.884766"/>
      <use xlink:href="#DejaVuSans-73" x="193.408203"/>
      <use xlink:href="#DejaVuSans-20" x="245.507812"/>
      <use xlink:href="#DejaVuSans-32" x="277.294922"/>
      <use xlink:href="#DejaVuSans-35" x="340.917969"/>
      <use xlink:href="#DejaVuSans-20" x="404.541016"/>
      <use xlink:href="#DejaVuSans-74" x="436.328125"/>
      <use xlink:href="#DejaVuSans-6f" x="475.537109"/>
      <use xlink:href="#DejaVuSans-20" x="536.71875"/>
      <use xlink:href="#DejaVuSans-33" x="568.505859"/>
      <use xlink:href="#DejaVuSans-34" x="632.128906"/>
     </g>
    </g>
    <g id="line2d_36">
     <path d="M 504.05 108.972812 
L 514.05 108.972812 
L 524.05 108.972812 
" style="fill: none; stroke: #006699; stroke-width: 3; stroke-linecap: square"/>
    </g>
    <g id="text_19">
     <!-- Ages 35 to 44 -->
     <g transform="translate(532.05 112.472812) scale(0.1 -0.1)">
      <use xlink:href="#DejaVuSans-41"/>
      <use xlink:href="#DejaVuSans-67" x="68.408203"/>
      <use xlink:href="#DejaVuSans-65" x="131.884766"/>
      <use xlink:href="#DejaVuSans-73" x="193.408203"/>
      <use xlink:href="#DejaVuSans-20" x="245.507812"/>
      <use xlink:href="#DejaVuSans-33" x="277.294922"/>
      <use xlink:href="#DejaVuSans-35" x="340.917969"/>
      <use xlink:href="#DejaVuSans-20" x="404.541016"/>
      <use xlink:href="#DejaVuSans-74" x="436.328125"/>
      <use xlink:href="#DejaVuSans-6f" x="475.537109"/>
      <use xlink:href="#DejaVuSans-20" x="536.71875"/>
      <use xlink:href="#DejaVuSans-34" x="568.505859"/>
      <use xlink:href="#DejaVuSans-34" x="632.128906"/>
     </g>
    </g>
    <g id="line2d_37">
     <path d="M 504.05 123.650937 
L 514.05 123.650937 
L 524.05 123.650937 
" style="fill: none; stroke: #cc6666; stroke-width: 3; stroke-linecap: square"/>
    </g>
    <g id="text_20">
     <!-- Ages 45 to 64 -->
     <g transform="translate(532.05 127.150937) scale(0.1 -0.1)">
      <use xlink:href="#DejaVuSans-41"/>
      <use xlink:href="#DejaVuSans-67" x="68.408203"/>
      <use xlink:href="#DejaVuSans-65" x="131.884766"/>
      <use xlink:href="#DejaVuSans-73" x="193.408203"/>
      <use xlink:href="#DejaVuSans-20" x="245.507812"/>
      <use xlink:href="#DejaVuSans-34" x="277.294922"/>
      <use xlink:href="#DejaVuSans-35" x="340.917969"/>
      <use xlink:href="#DejaVuSans-20" x="404.541016"/>
      <use xlink:href="#DejaVuSans-74" x="436.328125"/>
      <use xlink:href="#DejaVuSans-6f" x="475.537109"/>
      <use xlink:href="#DejaVuSans-20" x="536.71875"/>
      <use xlink:href="#DejaVuSans-36" x="568.505859"/>
      <use xlink:href="#DejaVuSans-34" x="632.128906"/>
     </g>
    </g>
    <g id="line2d_38">
     <path d="M 504.05 138.329062 
L 514.05 138.329062 
L 524.05 138.329062 
" style="fill: none; stroke: #999999; stroke-width: 3; stroke-linecap: square"/>
    </g>
    <g id="text_21">
     <!-- Ages 65 and older -->
     <g transform="translate(532.05 141.829062) scale(0.1 -0.1)">
      <defs>
       <path id="DejaVuSans-6c" d="M 603 4863 
L 1178 4863 
L 1178 0 
L 603 0 
L 603 4863 
z
" transform="scale(0.015625)"/>
      </defs>
      <use xlink:href="#DejaVuSans-41"/>
      <use xlink:href="#DejaVuSans-67" x="68.408203"/>
      <use xlink:href="#DejaVuSans-65" x="131.884766"/>
      <use xlink:href="#DejaVuSans-73" x="193.408203"/>
      <use xlink:href="#DejaVuSans-20" x="245.507812"/>
      <use xlink:href="#DejaVuSans-36" x="277.294922"/>
      <use xlink:href="#DejaVuSans-35" x="340.917969"/>
      <use xlink:href="#DejaVuSans-20" x="404.541016"/>
      <use xlink:href="#DejaVuSans-61" x="436.328125"/>
      <use xlink:href="#DejaVuSans-6e" x="497.607422"/>
      <use xlink:href="#DejaVuSans-64" x="560.986328"/>
      <use xlink:href="#DejaVuSans-20" x="624.462891"/>
      <use xlink:href="#DejaVuSans-6f" x="656.25"/>
      <use xlink:href="#DejaVuSans-6c" x="717.431641"/>
      <use xlink:href="#DejaVuSans-64" x="745.214844"/>
      <use xlink:href="#DejaVuSans-65" x="808.691406"/>
      <use xlink:href="#DejaVuSans-72" x="870.214844"/>
     </g>
    </g>
   </g>
  </g>
 </g>
 <defs>
  <clipPath id="p0bbb3e49fe">
   <rect x="90" y="51.84" width="558" height="332.64"/>
  </clipPath>
 </defs>
</svg>
